<svg xmlns:dc="http://purl.org/dc/elements/1.1/" xmlns:cc="http://creativecommons.org/ns#" xmlns:rdf="http://www.w3.org/1999/02/22-rdf-syntax-ns#" xmlns:svg="http://www.w3.org/2000/svg"
 xmlns="http://www.w3.org/2000/svg"
 viewBox="0 0 595.27557 419.52759" 
 height="70"
  width="100"
   version="1.1">
   <rect id="backgroundrect" width="100%" height="100%" x="0" y="0" fill="none" stroke="none"/>
  <metadata id="metadata52">
    <rdf:RDF>
      <cc:Work rdf:about="">
        <dc:format>image/svg+xml</dc:format>
        <dc:type rdf:resource="http://purl.org/dc/dcmitype/StillImage"/>
      </cc:Work>
    </rdf:RDF>
  </metadata>
  <defs id="defs50"/>
  
  
  
  
  
  
  
  
  
  
  
  
  
  
  
  
  
  
  
  
  
  
<g class="currentLayer" style=""><title>Layer 1</title><path id="path8" style="fill:#00a759;fill-rule:evenodd" d="m284.10831665039063,225.9604694885254 c13.8424,-6.8326 27.4929,-7.4509 30.4891,-1.3808 c2.9962,6.0702 -5.7965,16.53 -19.6393,23.3626 c-13.8424,6.8324 -27.4929,7.4506 -30.4891,1.3805 c-2.9962,-6.0701 5.7965,-16.5297 19.6393,-23.3623 z" class=""/><path id="path10" style="fill:#ffffff;fill-rule:evenodd;stroke:#ffffff;stroke-width:0.5;stroke-linecap:butt;stroke-linejoin:miter;stroke-dasharray:none" d="m240.9594166503906,253.2154694885254 c-0.19550000000000003,-4.652200000000001 -1.3641,-3.6301 -2.1907,-7.0368 c-2.2998000000000003,-9.4846 -2.7352,-10.6567 4.6178,-1.8167 c2.9926,-0.8105 2.5737,-0.10710000000000001 6.7268,-0.9739 c4.0429,0.554 4.3061,1.2178 8.9985,3.8288 c7.8731,-2.4252000000000002 2.6595,-2.1524 6.2559000000000005,-6.5793 l-0.7667000000000002,-2.7484 l-3.3825000000000003,-0.32910000000000006 c-12.5724,0.8530000000000001 -14.4667,0.5259 -20.0982,-2.037 c-4.8189,0.1811 -21.6141,7.2817 -27.6199,10.437100000000001 c2.1695,2.7371 2.3385000000000002,2.5042 5.156,3.4176 c4.0091,1.2999 4.5157,2.4427 11.9571,3.5291 c2.684,0.39110000000000006 7.4372,1.1743000000000001 10.3459,0.30860000000000004 z" class=""/><path id="path12" style="fill:#00a759;fill-rule:evenodd" d="m313.7431166503906,181.8317694885254 c0.463,1.0822 1.3943,3.0204 1.6768,4.0842 c0.6122000000000001,2.3085 0.467,1.7789000000000001 -0.05230000000000001,3.4426 c2.5554,4.2562 1.3923,11.5599 -0.36940000000000006,15.9354 c-3.2879,8.1702 -8.198,8.7065 -10.7308,13.0073 l2.3657,1.2825 c1.7074,0.06350000000000001 1.2102,-0.14350000000000002 2.7484,0.37610000000000005 l3.1527,1.3718000000000001 l2.7001,-1.7328000000000001 c0.11900000000000002,-0.5577000000000001 0.18350000000000002,-1.0833 0.21840000000000004,-1.5849000000000002 c-0.6165,-3.2308 0.26130000000000003,-6.5383 2.3214,-8.969 c0.19940000000000005,-2.1471 3.04,-2.6537 5.1122,-3.9859 c-1.1721,-4.2724 -0.3818000000000001,-4.8811 -0.9434,-8.3597 c2.5929,-0.7083 0.6881000000000002,2.3371 2.3352,2.7463 c4.5189,-2.5087 11.2628,-10.6273 16.3191,-12.349 c0.4408000000000001,3.1883 -1.2626,6.4901 -3.1173,9.9283 c-2.0696,3.8327 -1.3199,8.1247 -7.0561,9.4253 l0.10770000000000002,0.1327 c2.009,1.0337 3.7273,2.7112 4.8142,4.9132 c1.8821,3.813 1.3652,8.1711 -0.971,11.2988 c7.732,-5.0677 12.7577,-9.8526 17.2181,-16.6553 c4.0893,-6.2347 12.8572,-25.1065 -2.2483,-21.9082 l-3.3282,0.5223 c-0.6158000000000001,-3.815 8.7098,-29.3998 -5.2349,-31.743 c-8.1014,-0.011900000000000003 -21.3077,20.4487 -27.0383,28.821 z" class=""/><path id="path14" style="fill:#151616;fill-rule:evenodd" d="m272.7603166503906,162.7837694885254 c-3.799,2.6790000000000003 -29.688,15.3913 -33.0183,16.0061 l-1.7651000000000001,1.3212000000000002 c-16.5449,10.1848 -17.166,23.6555 -8.782399999999999,41.6556 c1.9268,3.5042 4.2733,7.8852 7.3188,9.0143 c-1.9631,-2.7218 -4.4051,-4.9969 -5.7687,-8.6805 c0.23990000000000003,0.08580000000000002 0.462,0.010000000000000002 0.6996000000000002,0.30760000000000004 l2.3547000000000002,1.4215 c6.2019,4.9516 9.2593,8.8912 20.2999,8.9134 c9.0875,0.0181 22.0183,-7.3237 31.396,-12.0124 c8.8417,-4.4207 18.71,-9.1544 23.578,-17.7496 c4.6716,-8.2479 2.6355,-17.4513 0.8507000000000001,-26.1975 c2.9258,4.0193 3.9298,8.1941 5.4441,12.5749 c0.5197,-1.6636000000000002 0.6647000000000002,-1.1334 0.052100000000000014,-3.4422 c-0.2821,-1.0641 -1.214,-3.002 -1.6768,-4.0848 c-6.9261,-14.8817 -17.1543,-25.2336 -33.2234,-21.5205 c-2.6777,0.6186000000000001 -5.3838,1.0422 -7.7592,2.4729 z" class=""/><path id="path16" style="fill:#151616;fill-rule:evenodd" d="m239.60101665039065,186.9868694885254 c-16.449,13.193200000000001 4.3683,39.2458 10.674,42.1094 c7.5844000000000005,3.4445 15.7422,-2.0131 24.2287,-6.165 c21.9397,-10.734 37.5839,-12.9779 29.9913,-34.387 c-2.9583,-8.3418 -8.617,-17.7381 -14.9556,-20.726 c-7.0519,-3.3242000000000003 -15.1647,1.6102 -23.8172,5.8626000000000005 c-6.6879,3.2867 -21.2261,9.3798 -26.1212,13.306000000000001 z" class=""/><path id="path18" style="fill:#00a759;fill-rule:evenodd" d="m244.3514166503906,262.2530694885254 l-0.21750000000000003,-0.2891 c-1.2335,-0.9793 -2.2792,-2.246 -3.0266,-3.7601 c-0.8078000000000001,-1.6367000000000003 -1.1728,-3.3737 -1.1428,-5.071 c-2.8797,0.6981000000000002 -6.793,0.1468 -9.3509,-0.22600000000000003 c-5.6376,-0.8229000000000001 -7.9048,-2.2149 -11.9571,-3.5291 c-2.8176,-0.9135 -2.9865,-0.6805000000000001 -5.156,-3.4177 c6.0058,-3.1554 22.8009,-10.2559 27.6197,-10.437 c-2.3377,-2.2395 -3.0792,-1.6717000000000002 -4.6069,-4.7417 c-3.0453,-1.1293 -5.3921,-5.5103 -7.3186,-9.0145 c-10.1679,-0.7029000000000001 -18.6261,-1.779 -29.7446,0.30900000000000005 c-2.0096,0.37750000000000006 -3.7115,0.6061000000000001 -5.4907,1.6565 c-7.6603,4.5202 -0.22660000000000002,12.2406 4.6501,16.3916 c3.8926000000000003,3.3138 7.9325,5 10.7957,6.8844 c-5.8019,12.0544 -0.1292,13.0763 13.2112,15.9843 c5.7123,1.2449000000000001 15.9495,1.3863 21.735,-0.7396000000000001 z" class=""/><path id="path20" style="fill:#151616;fill-rule:evenodd;stroke:#ffffff;stroke-width:0.5;stroke-linecap:butt;stroke-linejoin:miter;stroke-dasharray:none" d="m265.36781665039064,240.6374694885254 l6.5504,6.5754 c3.166,3.9955 5.4665,4.9457 8.5971,7.841 l1.9500000000000002,0.4006 c2.7325,-11.5568 15.968,-17.5196 26.4235,-11.988 c-0.07760000000000002,-2.239 -0.5687000000000001,-0.6931000000000002 1.0549,-2.9578 c-0.5544,-3.0312 -0.20450000000000002,-6.4507 -0.7450000000000001,-10.0291 c-0.6269000000000001,-4.1522 -0.8498000000000001,-9.7987 -4.5954,-12.1937 c2.5327,-4.3009 7.107,-4.8217 10.3955,-12.9921 c4.5332,-9.9831 0.43760000000000004,-20.9378 -5.075,-28.5105 c1.7847,8.7461 3.8208,17.9499 -0.8514,26.1977 c-4.8677,8.5948 -14.7358,13.3292 -23.5776,17.7493 c-9.3778,4.6891 -22.3082,12.0307 -31.396,12.0126 c-11.0403,-0.022400000000000007 -14.098,-3.9618 -20.2994,-8.913499999999999 l-2.3551,-1.4214 c-0.2376,-0.29730000000000006 -0.4602,-0.22160000000000002 -0.6994000000000001,-0.30760000000000004 c9.3148,23.0954 20.9541,14.5313 33.856,15.7887 l0.7669000000000001,2.7484 z" class=""/><path id="path22" style="fill:#141414;fill-rule:evenodd" d="m237.97691665039065,180.1110694885254 l1.7651000000000001,-1.3212000000000002 c-5.6521,-10.038 -13.0171,-8.7286 -15.5928,-10.726700000000001 c-17.9249,-13.9077 -12.3022,22.3543 0.9439000000000001,4.2657 c4.9589,0.7103 8.950800000000001,2.6268000000000002 12.8838,7.7822 z" class=""/><path id="path24" style="fill:#141414;fill-rule:evenodd" d="m272.76041665039065,162.7839694885254 c2.8003,-1.6866000000000003 2.7021,0.16600000000000004 2.0216,-1.9904 c-1.7637,-6.3645 -0.0729,-9.6134 1.8086000000000002,-14.0082 c18.4833,-0.8446000000000001 5.6178,-18.164 -1.6439000000000001,-9.9849 c-2.0386,3.2406 0.22860000000000003,4.3967 -1.5648,9.3168 c-2.0666,5.6696 -3.4942,7.7667 -0.6215,16.6667 z" class=""/><path id="path26" style="fill:#ffffff;fill-rule:evenodd" d="m243.7126166503906,207.6667694885254 c7.7617,15.1934 22.0605,7.1374 12.1927,-8.6044 c-7.0767,-9.0652 -16.6962,-2.6251 -12.1927,8.6044 z" class=""/><path id="path28" style="fill:#ffffff;fill-rule:evenodd" d="m279.15111665039063,188.6727694885254 c7.6023,18.3379 23.1736,7.2393 12.9453,-6.6392 c-6.5666,-8.8592 -16.226,-4.0945 -12.9453,6.6392 z" class=""/><path id="path30" style="fill:#ffffff;fill-rule:evenodd" d="m287.6267166503906,204.1151694885254 c-7.5435,21.1082 -24.5712,11.1974 -24.5712,11.1974 c0,0 4.8952,-16.1278 24.5712,-11.1974 z" class=""/><path id="path32" style="fill:#00a759;fill-rule:evenodd" d="m219.2087166503906,174.27816948852538 c4.0808,-2.1421 0.3323000000000001,-9.1902 -3.7387,-6.1593 c-2.2244,2.3649 0.6164000000000001,7.1944 3.7387,6.1593 z" class=""/><path id="path34" style="fill:#00a759;fill-rule:evenodd" d="m281.26451665039065,143.64786948852537 c4.0809,-2.142 0.3324000000000001,-9.1901 -3.7386,-6.1593 c-2.2244,2.365 0.6163000000000001,7.1944 3.7386,6.1593 z" class=""/><path id="path36" style="fill:#ffffff;fill-rule:evenodd;stroke:#ffffff;stroke-width:0.21600001;stroke-linecap:butt;stroke-linejoin:miter;stroke-dasharray:none" d="m331.3432166503906,208.2643694885254 c-4.2965,-2.7788 -6.2919,-3.5536000000000003 -13.179,1.5795 c-2.734,3.8404 -2.2011,7.5552 -2.8185000000000002,9.7573 c-2.6572,3.6032 -3.3251,0.8025 -9.0275,0.9644 l-1.715,-2.2796 l1.7959,-2.8858 c8.3244,-9.4608 9.2158,-11.1635 10.6065,-17.1926 c3.0747,-3.7151 18.9266,-12.7281 25.0837,-15.577 c0.8531000000000001,3.3871 0.5657000000000001,3.38 -0.42280000000000006,6.172 c-1.4062000000000001,3.9731 -0.8075,5.0702 -4.4718,11.6375 c-1.322,2.3687 -3.3951000000000002,6.0418 -5.8515,7.8243 z" class=""/><path id="path38" style="fill:#151616;fill-rule:evenodd;stroke:#ffffff;stroke-width:0.21600001;stroke-linecap:butt;stroke-linejoin:miter;stroke-dasharray:none" d="m281.8844166503906,258.0754694885254 c11.7899,6.8513 27.826,-1.3566 29.4779,-14.55 c-6.1328,-7.9928 -16.5526,-9.82 -23.5734,-4.9369 c-5.5347,3.8499 -7.8869,12.0051 -5.9045,19.4869 z" class=""/><path id="path40" style="fill:#151616;fill-rule:evenodd" d="m253.54191665039065,211.34586948852538 c6.1796,-3.2437 0.5032,-13.9168 -5.6615,-9.3271 c-3.3684000000000003,3.5813 0.9333,10.8946 5.6615,9.3271 z" class=""/><path id="path42" style="fill:#151616;fill-rule:evenodd" d="m289.5690166503906,193.5635694885254 c6.1797,-3.2437 0.5033,-13.9168 -5.6615,-9.3271 c-3.3684000000000003,3.5813 0.9334,10.8946 5.6615,9.3271 z" class=""/><path id="path44" style="fill:#00a759;fill-rule:evenodd" d="m245.67291665039062,262.3032694885254 l-0.7566000000000002,0.7431000000000001 c-0.8525,0.6890000000000002 -2.0708,1.2352 -2.8851,2.3404000000000003 c-0.8085,1.0972 -1.2836,2.7117 -0.04100000000000001,4.1737 c1.4701,1.7296 2.56,0.4252 2.2952,3.2336 c-0.2341,2.4853 1.3738000000000001,2.5645 2.7169,3.0844 c1.1865,2.8658 0.11210000000000002,2.1699 2.9194,2.9835 c2.093,0.6067000000000001 0.9464,2.6624 3.8747000000000003,2.3114 c2.5994,-0.31100000000000005 2.2159,-1.1362 4.9119,-0.7791 c1.3999000000000001,0.18530000000000002 3.2687,0.03480000000000001 4.9062,-0.8370000000000001 c3.0437,-1.6215000000000002 3.9862,-5.1747 3.2976,-8.1756 c-1.2244000000000002,-5.3369 -5.3281,-5.5419 -6.0838,-7.8919 c-0.6823000000000001,-2.1236 0.5757000000000001,-9.584 5.5059000000000005,-11.9498 c1.7137000000000002,-0.8225 3.8382,-1.4197 2.3444000000000003,-3.5465 c-1.7817,-2.5361000000000002 -8.7114,1.961 -10.8184,8.1367 c-0.45930000000000004,1.3455000000000001 -0.5630000000000001,3.0374 -0.9979,4.3633 c-1.7293,-0.16240000000000004 -4.3126,-1.2191 -5.9216,-2.9386 c-1.6523,-1.7663000000000002 -3.2734,-6.0967 -4.5725,-6.7775 c-2.4712,-1.2953000000000001 -3.9743,2.4192 -4.0453,4.0781 c-0.11750000000000002,2.7375 1.8883,5.1387 3.35,7.4478 zm13.3707,17.2718 c3.401,0.30450000000000005 6.4561,-2.3806000000000003 7.044,-4.9254999999999995 c0.8355,-3.6177 -1.3724,-5.9453 -3.7048,-8.3152 c-1.3162,2.4174 0.6328000000000001,4.6486 1.2243,7.4773 c0.5961000000000001,2.8484 -1.9906000000000001,4.1583 -4.5635,5.7634 zm-13.8298,-5.4616 c1.5065,0.6550000000000001 1.6653000000000002,0.1 2.6177,0.5393 c1.1806,0.5439 0.34920000000000007,1.3646 0.7282000000000001,2.7734 c1.7676000000000003,0.9926 2.6183,-0.2652 3.4486,0.9418000000000001 c0.8849000000000001,1.2862 0.18650000000000003,2.0403000000000002 2.9264,1.373 c2.9763,-0.7252000000000001 6.4032,-3.1288 5.5933,-5.6567 c-2.7465,-0.7889 -4.7245,3.4413 -7.0083,2.8798000000000004 c0.5672,-2.032 5.7935,-2.3569 6.3224,-5.5003 c-1.7208,-4.1083 -6.0749,1.8106 -8.3939,1.28 c0.7125,-1.2218 2.73,-1.7583000000000002 4.1567,-2.741 c1.1752,-0.8095 2.2907,-2.3233 0.9799,-3.5693 c-2.4988,-2.3756 -7.1282,3.1539 -9.0845,1.9180000000000001 c1.4438,-1.6145 6.639,-2.2334 5.6283,-4.7781 c-1.5687000000000002,-3.9479 -12.6537,1.088 -10.7387,4.9762 c0.7152000000000001,1.4517 1.7688000000000001,1.1597 2.5496,2.1842 c0.9055,1.1877 -0.07410000000000001,1.8493 0.27430000000000004,3.3797 zm9.2553,-9.2017 c0.9474,0.4016 1.8712,0.08060000000000002 2.7813,0.8716000000000002 c1.1381000000000001,0.9888 0.9222,2.3702 0.9279000000000001,3.3114 c1.7806000000000002,-0.13690000000000002 1.0642,0.4499000000000001 2.2676,1.3401 c0.9520000000000001,-4.8785 -0.268,-7.5867 -4.8376,-9.0075 c-9.604800000000001,-2.9865 -7.3781,-10.979800000000001 -10.5692,-9.5131 c-2.3505000000000003,1.0803 -2.323,4.8766 0.36890000000000006,8.292 c2.2041,2.7973 1.9933,1.1223 5.1897,0.9596000000000001 c2.2046,-0.11200000000000002 3.4937,1.1486 3.8714,3.7459000000000002 z" class=""/><path id="path46" style="fill:#00a759;fill-rule:evenodd" d="m321.91561665039063,210.1510694885254 c-0.9442,2.3253 -0.46690000000000004,4.2725 2.2329,6.093 c-0.011700000000000004,1.9474 -1.2986,5.6449 -3.0181,7.5711 c-1.1224,1.2581 -2.2733,1.9870999999999999 -3.7008,2.2567 c-1.6334,0.30860000000000004 -2.508,-0.6455000000000001 -3.5589,1.3450000000000002 c0.8454,2.5589 4.6246,1.5771000000000002 6.6539,0.4373000000000001 c3.5863,-2.0138 5.5869,-6.5174 6.2827,-10.2869 c0.4512,-2.4447 0.36390000000000006,-0.7443000000000001 2.6322,-3.3351 c2.1851,-2.4957000000000003 3.1485,-5.0589 1.7510000000000001,-7.3887 c2.4408000000000003,-2.0193 2.809,-2.2095000000000002 3.6695,-5.0128 c0.8538000000000001,-2.7807 2.9101,-3.0251 3.5451,-5.3973 c-1.2627,-1.9547 -1.7638000000000003,-1.1918 -3.3882,-0.5436000000000001 c0.09200000000000003,-0.29380000000000006 2.5147,-3.7851 -0.133,-4.0866 c-0.6502000000000001,-0.07410000000000001 -1.0846,0.3279000000000001 -1.6362,0.7811 c-0.006000000000000002,-0.06270000000000002 -0.05270000000000001,-0.19960000000000003 -0.008000000000000002,-0.18850000000000003 l-0.05440000000000001,-1.1524 c-0.29250000000000004,-1.6841000000000002 -1.9688,-1.737 -3.5297,-0.2726 c-3.033,-3.5503 -5.7707,4.5697 -3.7122,8.1498 l-2.9251,1.9481000000000002 c-1.3246,-0.9510000000000001 -1.8096,-3.5324999999999998 -3.8978,-3.2242 c-1.7931,0.2654 -2.8062,1.9311 -2.1351,3.4898000000000002 c0.7471000000000001,1.7360000000000002 2.7211,2.2985 2.9552,4.3057 c0.22680000000000003,1.9487 0.1315,2.4682 1.975,4.5111 zm1.8730000000000002,0.24720000000000003 l-1.2845,0.24190000000000003 c-0.9441,2.9469000000000003 1.2288000000000001,5.7170000000000005 4.7403,4.1076 c3.0846,-1.4131 3.5505,-4.8551 3.3809,-6.9677 l-2.1014,1.5298 c0.6816000000000002,-2.4751 4.2903,-3.8605 5.1378,-6.3751 c0.5619000000000001,-1.6680000000000001 -0.04600000000000001,-1.7147000000000001 1.6588000000000003,-3.4899 c0.9981,-1.0401 2.5484,-2.0657 2.0889,-3.2778 c-2.8429,-1.1698 -4.6501,4.6874 -5.7253,5.1394 c-2.802,1.178 -4.4983,0.5725 -6.2491,4.7725 c-0.6953000000000001,-3.9207 5.5983,-5.1683 6.0278,-5.5669 c0.07640000000000001,-0.07 1.9792,-3.4292 2.3144,-3.9688 c0.6692000000000001,-1.0762 2.4009,-2.983 1.2439,-4.0207 c-2.3565,-0.3188000000000001 -4.0179,4.6754 -4.8188,6.2523 c-0.09040000000000002,-2.8875 3.6637000000000004,-6.5537 1.5513,-8.2534 c-2.8081,0.5394 -3.0458,5.4747 -3.5129,7.3027 c-0.7429000000000001,-2.4705 2.0007,-5.7937 0.21610000000000001,-7.1137 c-3.1226,1.2373 -2.6709,6.0529 -2.0086,8.6637 c1.1637,0.26890000000000003 2.0228,0.20390000000000003 3.3597,0.8166000000000001 c-2.7081,0.15860000000000002 -4.5198,-0.7222000000000001 -7.5367,2.2741 c0.08120000000000002,-0.6644000000000001 0.2657,-0.5069 -0.021000000000000005,-1.1221 c-0.7114,0.031000000000000007 -1.1437,0.15480000000000002 -1.8812000000000002,0.23220000000000002 l1.3008000000000002,-0.982 c-0.8521000000000001,-1.2271 -2.1553,-2.8716 -3.5698,-1.6630000000000003 c-1.6344,1.3965 -0.19620000000000004,2.5672 1.0962,3.7848 c2.8023,2.6390000000000002 -0.31840000000000007,4.2797 4.5924,7.6835 z" class=""/></g></svg>